<?xml version="1.0" encoding="UTF-8"?>
<svg xmlns="http://www.w3.org/2000/svg" xmlns:xlink="http://www.w3.org/1999/xlink" width="30px" height="30px" viewBox="0 0 30 30" version="1.1">
<g id="surface1">
<path style=" stroke:none;fill-rule:evenodd;fill:rgb(0%,0%,0%);fill-opacity:1;" d="M 18.75 23.4375 C 18.75 23.957031 18.332031 24.375 17.8125 24.375 L 2.8125 24.375 C 2.292969 24.375 1.875 23.957031 1.875 23.4375 L 1.875 6.5625 C 1.875 6.042969 2.292969 5.625 2.8125 5.625 L 17.8125 5.625 C 18.332031 5.625 18.75 6.042969 18.75 6.5625 L 18.75 10.3125 C 18.75 10.832031 19.167969 11.25 19.6875 11.25 C 20.207031 11.25 20.625 10.832031 20.625 10.3125 L 20.625 6.5625 C 20.625 5.007812 19.367188 3.75 17.8125 3.75 L 2.8125 3.75 C 1.257812 3.75 0 5.007812 0 6.5625 L 0 23.4375 C 0 24.992188 1.257812 26.25 2.8125 26.25 L 17.8125 26.25 C 19.367188 26.25 20.625 24.992188 20.625 23.4375 L 20.625 19.6875 C 20.625 19.167969 20.207031 18.75 19.6875 18.75 C 19.167969 18.75 18.75 19.167969 18.75 19.6875 Z M 18.75 23.4375 "/>
<path style=" stroke:none;fill-rule:evenodd;fill:rgb(0%,0%,0%);fill-opacity:1;" d="M 29.726562 15.664062 C 29.902344 15.488281 30 15.25 30 15 C 30 14.75 29.902344 14.511719 29.726562 14.335938 L 24.101562 8.710938 C 23.734375 8.34375 23.140625 8.34375 22.773438 8.710938 C 22.40625 9.078125 22.40625 9.671875 22.773438 10.039062 L 26.800781 14.0625 L 10.3125 14.0625 C 9.792969 14.0625 9.375 14.480469 9.375 15 C 9.375 15.519531 9.792969 15.9375 10.3125 15.9375 L 26.800781 15.9375 L 22.773438 19.960938 C 22.40625 20.328125 22.40625 20.921875 22.773438 21.289062 C 23.140625 21.65625 23.734375 21.65625 24.101562 21.289062 Z M 29.726562 15.664062 "/>
</g>
</svg>
